<svg width="146" height="24" xmlns="http://www.w3.org/2000/svg"><path d="M129.96.075c5.34.023 10.68-.043 16.018.034V23.87c-1.65.051-3.305.06-4.954-.003-.003-6.272 0-12.543-.001-18.815h-13.674c-.002 6.272.001 12.546-.002 18.818a71.35 71.35 0 01-4.952-.003c-.003-7.919-.003-15.836 0-23.755 2.52-.083 5.043-.012 7.565-.037zM23.579.098c.01 7.928.01 15.855 0 23.783-1.65.031-3.302.047-4.95-.008v-9.395H4.955c-.004 3.134.01 6.267-.006 9.403-1.65.033-3.3.047-4.949-.008V.106C1.143.042 2.288.09 3.432.076 10.148.09 16.863.045 23.58.097zm28.209.01c-.018 4.79.04 9.582-.029 14.37h-9.285v9.395c-1.648.055-3.3.04-4.949.008-.015-3.134-.001-6.27-.006-9.403-3.09.001-6.182-.005-9.273.003a10.35 10.35 0 01-.043-.911c.005-4.487-.001-8.972.003-13.458C29.839.047 31.479.062 33.111.1c.037.214.053.431.053.652-.009 2.915-.001 5.831-.004 8.748h13.674c.001-3.13-.002-6.26.001-9.39a71.35 71.35 0 014.953 0zm9.575.004c.003 6.272 0 12.542.001 18.815h13.002c1.875.022 3.753-.047 5.626.036.002 1.635.002 3.27 0 4.904-2.47.085-4.942.012-7.413.036H58.42c-.67.002-1.34.015-2.008-.033-.002-7.92-.002-15.84-.002-23.761 1.65-.052 3.304-.06 4.954.003zM89.569.106v23.767c-1.648.055-3.3.04-4.95.008-.01-7.928-.01-15.855.002-23.783 1.648-.032 3.3-.048 4.948.008zm15.346-.03c4.285.014 8.57-.03 12.853.022.01 1.644.01 3.288 0 4.932-6.208.052-12.416.007-18.624.022v4.449c3.091-.001 6.182.005 9.273-.003a60.386 60.386 0 010 4.983c-3.09-.008-6.182-.002-9.273-.003v4.449c6.208.015 12.416-.03 18.624.022.01 1.644.01 3.288 0 4.932-4.534.053-9.07.007-13.603.022-3.325-.02-6.653.041-9.976-.03V.106c3.574-.071 7.15-.011 10.726-.03zM18.629 5.051H4.955V9.5H18.63V5.052z" fill="#8ABE06" fill-rule="evenodd"/></svg>